<svg width="26" height="26" viewBox="0 0 26 26" fill="none" xmlns="http://www.w3.org/2000/svg">
<path fill-rule="evenodd" clip-rule="evenodd" d="M14.25 0.5625C17.1187 0.851495 19.7994 2.12303 21.8382 4.1618C23.877 6.20056 25.1485 8.88127 25.4375 11.75H23C22.6685 11.75 22.3505 11.8817 22.1161 12.1161C21.8817 12.3505 21.75 12.6685 21.75 13C21.75 13.3315 21.8817 13.6495 22.1161 13.8839C22.3505 14.1183 22.6685 14.25 23 14.25H25.4375C24.8113 20.5662 19.4812 25.5 13 25.5C6.51875 25.5 1.18875 20.5662 0.5625 14.25H3C3.33152 14.25 3.64946 14.1183 3.88388 13.8839C4.1183 13.6495 4.25 13.3315 4.25 13C4.25 12.6685 4.1183 12.3505 3.88388 12.1161C3.64946 11.8817 3.33152 11.75 3 11.75H0.5625C0.851495 8.88127 2.12303 6.20056 4.1618 4.1618C6.20056 2.12303 8.88127 0.851495 11.75 0.5625V3C11.75 3.33152 11.8817 3.64946 12.1161 3.88388C12.3505 4.1183 12.6685 4.25 13 4.25C13.3315 4.25 13.6495 4.1183 13.8839 3.88388C14.1183 3.64946 14.25 3.33152 14.25 3V0.5625ZM20.225 5.775L14.1713 8.85625L13.705 9.1025L12.9425 9.49C12.0425 9.9525 11.125 10.455 10.4363 11.1438C9.2225 12.3588 9.075 14.3787 10.3487 15.6512C11.6212 16.925 13.6412 16.7775 14.8562 15.5637C15.4462 14.9737 15.9 14.2162 16.3088 13.4437L16.8975 12.295L17.35 11.4225L20.225 5.775ZM14.4525 11.5475L14.3125 11.81L14.1713 12.08C13.91 12.5825 13.6388 13.1075 13.2987 13.545L13.0887 13.795C12.7413 14.1425 12.3075 14.075 12.1163 13.8837C11.9438 13.7112 11.8713 13.3438 12.1125 13.0188L12.2037 12.9125C12.6025 12.545 13.1087 12.255 13.6163 11.9875L13.92 11.8287C14.1025 11.735 14.2825 11.6413 14.4525 11.5475Z" fill="white"/>
</svg>
