<svg width="30" height="30" viewBox="0 0 30 30" fill="none" xmlns="http://www.w3.org/2000/svg">
<path d="M8.57143 0C9.7567 0 10.7143 0.837891 10.7143 1.875V3.75H19.2857V1.875C19.2857 0.837891 20.2433 0 21.4286 0C22.6138 0 23.5714 0.837891 23.5714 1.875V3.75H26.7857C28.5603 3.75 30 5.00977 30 6.5625V9.375H0V6.5625C0 5.00977 1.43973 3.75 3.21429 3.75H6.42857V1.875C6.42857 0.837891 7.38616 0 8.57143 0ZM0 11.25H30V27.1875C30 28.7402 28.5603 30 26.7857 30H3.21429C1.43973 30 0 28.7402 0 27.1875V11.25ZM4.28571 15.9375V17.8125C4.28571 18.3281 4.76786 18.75 5.35714 18.75H7.5C8.08929 18.75 8.57143 18.3281 8.57143 17.8125V15.9375C8.57143 15.4219 8.08929 15 7.5 15H5.35714C4.76786 15 4.28571 15.4219 4.28571 15.9375ZM12.8571 15.9375V17.8125C12.8571 18.3281 13.3393 18.75 13.9286 18.75H16.0714C16.6607 18.75 17.1429 18.3281 17.1429 17.8125V15.9375C17.1429 15.4219 16.6607 15 16.0714 15H13.9286C13.3393 15 12.8571 15.4219 12.8571 15.9375ZM22.5 15C21.9107 15 21.4286 15.4219 21.4286 15.9375V17.8125C21.4286 18.3281 21.9107 18.75 22.5 18.75H24.6429C25.2321 18.75 25.7143 18.3281 25.7143 17.8125V15.9375C25.7143 15.4219 25.2321 15 24.6429 15H22.5ZM4.28571 23.4375V25.3125C4.28571 25.8281 4.76786 26.25 5.35714 26.25H7.5C8.08929 26.25 8.57143 25.8281 8.57143 25.3125V23.4375C8.57143 22.9219 8.08929 22.5 7.5 22.5H5.35714C4.76786 22.5 4.28571 22.9219 4.28571 23.4375ZM13.9286 22.5C13.3393 22.5 12.8571 22.9219 12.8571 23.4375V25.3125C12.8571 25.8281 13.3393 26.25 13.9286 26.25H16.0714C16.6607 26.25 17.1429 25.8281 17.1429 25.3125V23.4375C17.1429 22.9219 16.6607 22.5 16.0714 22.5H13.9286ZM21.4286 23.4375V25.3125C21.4286 25.8281 21.9107 26.25 22.5 26.25H24.6429C25.2321 26.25 25.7143 25.8281 25.7143 25.3125V23.4375C25.7143 22.9219 25.2321 22.5 24.6429 22.5H22.5C21.9107 22.5 21.4286 22.9219 21.4286 23.4375Z" fill="#4B0082"/>
</svg>
