<?xml version="1.0" encoding="UTF-8"?><svg id="logo_only" xmlns="http://www.w3.org/2000/svg" xmlns:xlink="http://www.w3.org/1999/xlink" viewBox="0 0 512 512"><defs><style>.cls-1{fill:url(#linear-gradient-2);}.cls-2{fill:url(#linear-gradient-5);}.cls-3{fill:url(#linear-gradient-3);}.cls-4{fill:url(#linear-gradient);}.cls-5{fill:url(#linear-gradient-4);}</style><linearGradient id="linear-gradient" x1="167.73" y1="348.9" x2="410.39" y2="348.9" gradientUnits="userSpaceOnUse"><stop offset="0" stop-color="aqua"/><stop offset="1" stop-color="#0071bb"/></linearGradient><linearGradient id="linear-gradient-2" x1="260.53" y1="254.96" x2="349.13" y2="276.87" gradientUnits="userSpaceOnUse"><stop offset=".14" stop-color="#00cae6" stop-opacity="0"/><stop offset=".15" stop-color="#02b9d9" stop-opacity=".06"/><stop offset=".23" stop-color="#144184" stop-opacity=".45"/><stop offset=".27" stop-color="#1b1464" stop-opacity=".6"/><stop offset=".66" stop-color="#1b1464" stop-opacity=".6"/><stop offset=".74" stop-color="#0d5197" stop-opacity=".29"/><stop offset=".82" stop-color="#037cbb" stop-opacity=".08"/><stop offset=".87" stop-color="#008cc8" stop-opacity="0"/><stop offset="1" stop-color="#0079bf" stop-opacity="0"/></linearGradient><linearGradient id="linear-gradient-3" x1="214.01" y1="51.87" x2="214.01" y2="368.53" gradientUnits="userSpaceOnUse"><stop offset="0" stop-color="#f89938"/><stop offset="1" stop-color="#ec1e79"/></linearGradient><linearGradient id="linear-gradient-4" x1="240.25" y1="346" x2="151.15" y2="334.34" gradientUnits="userSpaceOnUse"><stop offset=".09" stop-color="#ec1e79" stop-opacity="0"/><stop offset=".18" stop-color="#ca116d" stop-opacity=".25"/><stop offset=".28" stop-color="#a90461" stop-opacity=".5"/><stop offset=".33" stop-color="#9d005d" stop-opacity=".6"/><stop offset=".79" stop-color="#9d005d" stop-opacity=".6"/><stop offset=".84" stop-color="#b60965" stop-opacity=".41"/><stop offset=".91" stop-color="#d31470" stop-opacity=".19"/><stop offset=".96" stop-color="#e51b76" stop-opacity=".05"/><stop offset="1" stop-color="#ec1e79" stop-opacity="0"/></linearGradient><linearGradient id="linear-gradient-5" x1="169.32" y1="344.98" x2="333.82" y2="358.65" gradientUnits="userSpaceOnUse"><stop offset=".15" stop-color="aqua"/><stop offset="1" stop-color="#0071bb"/></linearGradient></defs><g id="logo"><path id="a" class="cls-4" d="M174.37,310.09c10.52-30.61,34.88-54.97,65.74-65.57,76.57-26.3,148.04,26.83,152.19,97.84,.02,.38,.04,.72,.06,1.11,0,0,0,0,0,0,.03,.59,.14,4.65,.15,5.43,.02,2.64-1,32.98-.44,54.56,.27,10.3,.82,15.56,4.45,17.62,4.85,2.76,11.31-2.38,13.36,0,2.33,2.71-3.79,11.94-8.9,17.62-6.78,7.54-14.13,11.47-17.81,13.22-5.96,2.83-22.83,10.84-31.16,4.41-6.27-4.84-5.06-15.82-4.45-22.03,1.17-11.97,5.8-59.16,0-88.13-1.62-8.09-7.71-45-38.16-57.87-58.5-24.72-114.42,29.59-91.42,87.41,6.46,16.23,19.74,29.01,36.24,35.14,16.63,6.18,32.91,6.07,47.1,1.42,17.58-5.76,35.67,7.41,35.67,25.74v3.94c0,1.79-.96,3.47-2.55,4.33-16.1,8.8-34.6,13.85-54.31,13.85-74.76,0-132.48-72.25-105.75-150.03Z"/><path id="shadow_2" class="cls-1" d="M276.15,237.68c-.97,.04-12.44,.69-18.51,10.47-4.19,6.75-4.13,15.73-.11,22.75,5.13,8.95,14.52,10.98,15.98,11.27,7.69-.18,19.08,.56,31.73,5.23,6.35,2.35,11.64,5.17,15.87,7.85,1.07,.49,10.82,4.76,18.51,0,9.98-6.17,8.1-22.33,8-23.1-.03-.21-.06-.44-.06-.46,0,0-.99-6.72-5.29-13.08-4.14-6.13-17.62-13.5-37.02-18.32-12.09-3-19.23-3.01-29.09-2.62Z"/><path id="b" class="cls-3" d="M319.76,296.12c-10.52,30.61-34.87,54.97-65.74,65.57-76.57,26.3-148.04-26.83-152.19-97.84-.16-2.17-.21-4.34-.21-6.54V91.23c0-21.73,17.8-39.35,39.77-39.35h.19c2.77,0,5.01,2.22,5.01,4.95v203.21c0,22.69,17.07,48.96,38.16,57.87,58.5,24.72,114.42-29.6,91.42-87.42-6.46-16.22-19.73-29.01-36.23-35.14-16.64-6.18-32.91-6.07-47.1-1.42-17.58,5.76-35.67-7.41-35.67-25.74v-3.94c0-1.79,.96-3.47,2.55-4.33,16.1-8.8,34.6-13.85,54.31-13.85,74.76,0,132.48,72.25,105.75,150.03Z"/><path id="shadow1" class="cls-5" d="M217.97,368.53c.97-.04,12.44-.69,18.51-10.47,4.19-6.75,4.13-15.73,.11-22.75-5.13-8.95-14.52-10.98-15.98-11.27-7.69,.18-19.08-.56-31.73-5.23-6.35-2.35-11.64-5.17-15.87-7.85-1.07-.49-10.82-4.76-18.51,0-9.98,6.17-8.1,22.33-8,23.1,.03,.21,.06,.44,.06,.46,0,0,.99,6.72,5.29,13.08,4.14,6.13,17.62,13.5,37.02,18.32,12.09,3,19.23,3.01,29.09,2.62Z"/><path id="b_cut" class="cls-2" d="M247.06,290.02c-5.29,2.62-50.25,34.02-29.09,85.69,6.62,16.16,19.74,29.01,36.24,35.14,16.63,6.18,32.91,6.07,47.1,1.42,17.58-5.76,35.67,7.41,35.67,25.74v3.94c0,1.79-.96,3.47-2.55,4.33-16.1,8.8-34.6,13.85-54.31,13.85-74.76,0-132.48-72.25-105.75-150.03,10.52-30.61,34.88-54.97,65.74-65.57"/></g></svg>