<svg width="59" height="49" viewBox="0 0 59 49" fill="none" xmlns="http://www.w3.org/2000/svg">
<path d="M29.4864 -9.53674e-05H29.5074C29.6715 -9.53674e-05 29.8409 0.00556564 30.005 0.0157547C30.1799 0.0265121 30.3542 0.0423584 30.5235 0.0638695C30.6927 0.0853806 30.8677 0.111416 31.0369 0.138023C31.047 0.142155 31.0578 0.143852 31.0686 0.14312C31.2276 0.174816 31.3867 0.211609 31.5452 0.24897C31.7981 0.305801 32.0473 0.378204 32.2913 0.465775H32.2969C32.5454 0.550682 32.7838 0.645779 33.0221 0.751633C33.1013 0.788994 33.1806 0.820694 33.2547 0.864845C33.3289 0.909 33.4138 0.938999 33.4879 0.978058L33.493 0.983154C33.5723 1.02561 33.6464 1.06806 33.7195 1.11052C33.7925 1.15297 33.8729 1.19486 33.9459 1.24241C34.0783 1.32222 34.2108 1.40147 34.3376 1.48638C34.6475 1.69956 34.9444 1.93097 35.2269 2.17924C35.3118 2.2534 35.3859 2.32245 35.4652 2.4017C35.5178 2.44925 35.5654 2.49737 35.6186 2.55001C35.7137 2.64511 35.8093 2.74587 35.9016 2.84663C35.9939 2.94739 36.0811 3.05267 36.1711 3.15852C36.2611 3.26438 36.346 3.37024 36.4252 3.48175C36.5045 3.59326 36.5894 3.70817 36.6686 3.82591L36.8594 4.10894L36.9228 4.20461C37.7293 5.55523 38.1555 7.09888 38.1562 8.67196C38.159 10.3951 37.6425 12.079 36.6743 13.5044L29.6715 23.8888L29.4966 24.143L29.2481 24.5138L24.9925 30.8282L16.2536 43.7802C16.2511 43.786 16.2477 43.7913 16.2434 43.7961L15.8359 44.3995C15.212 45.3697 14.4006 46.2056 13.4494 46.858C12.498 47.5104 11.426 47.9662 10.2962 48.1986C9.16632 48.431 8.00142 48.4354 6.86987 48.2115C5.73831 47.9875 4.66285 47.5398 3.70665 46.8946C2.75047 46.2494 1.93302 45.4197 1.30186 44.4541C0.6707 43.4886 0.238796 42.4067 0.03162 41.272C-0.176125 40.1373 -0.154613 38.9726 0.0944519 37.8462C0.343517 36.7199 0.815044 35.6547 1.4813 34.713L15.01 14.6581C15.0151 14.653 15.0151 14.6473 15.0208 14.6422L18.7466 9.11632L22.2454 3.9295C22.2612 3.90799 22.272 3.89214 22.2827 3.87629C22.2919 3.85671 22.3043 3.83887 22.3195 3.82365V3.81799C22.4254 3.66458 22.5363 3.51628 22.6479 3.37363C22.6605 3.34725 22.6784 3.3237 22.7005 3.30457C22.7747 3.20381 22.8596 3.10361 22.944 3.00852C23.0764 2.84945 23.2196 2.69606 23.3673 2.54775L23.3781 2.53699C23.4913 2.42378 23.6006 2.32019 23.7178 2.21433C23.7653 2.17698 23.8128 2.13509 23.8604 2.09263C23.9453 2.01339 24.0353 1.94432 24.1253 1.87526C24.149 1.85098 24.1757 1.8297 24.2045 1.81187C24.2892 1.74201 24.3774 1.67663 24.4689 1.61601C24.5254 1.56902 24.5856 1.52663 24.6489 1.48921C24.6489 1.48412 24.6545 1.48412 24.6545 1.48412C24.9429 1.29143 25.2414 1.11459 25.5489 0.954285C25.6865 0.885788 25.8292 0.816734 25.9673 0.753334C25.9724 0.753334 25.9723 0.748238 25.9774 0.748238C26.1365 0.67918 26.2899 0.61578 26.4484 0.557476C26.6069 0.499172 26.7767 0.440865 26.946 0.387657C27.1152 0.334446 27.2794 0.292561 27.4435 0.250107C27.6077 0.207649 27.7668 0.175949 27.9252 0.144249C27.9445 0.143345 27.9636 0.139668 27.9819 0.133495C28.146 0.106892 28.3045 0.0808525 28.4687 0.0650024C28.6328 0.0491524 28.8129 0.0276413 28.9878 0.0168877C29.1531 0.00556564 29.3166 -9.53674e-05 29.4864 -9.53674e-05Z" fill="url(#paint0_linear_119_3076)"/>
<g style="mix-blend-mode:multiply" opacity="0.1">
<path d="M29.4864 -0.000133514H29.5074C29.6715 -0.000133514 29.8409 0.00558281 30.005 0.0157719C30.1799 0.0265274 30.3542 0.0423203 30.5235 0.0638313C30.6927 0.0853424 30.8677 0.111435 31.0369 0.138039C31.047 0.142115 31.0578 0.143871 31.0686 0.14308C31.2276 0.174778 31.3867 0.211571 31.5452 0.24893C31.7981 0.305763 32.0473 0.378164 32.2913 0.465734H32.2969C32.5454 0.550644 32.7838 0.645741 33.0221 0.751593C33.1013 0.788954 33.1806 0.820711 33.2547 0.864864C33.3289 0.909018 33.4138 0.938961 33.4879 0.97802L33.493 0.983114C33.5723 1.02557 33.6464 1.06802 33.7195 1.11048C33.7925 1.15293 33.8729 1.19482 33.9459 1.24237C34.0783 1.32219 34.2108 1.40143 34.3376 1.48634C34.6475 1.69958 34.9444 1.93093 35.2269 2.1792C35.3118 2.25336 35.3859 2.32247 35.4652 2.40172C35.5178 2.44927 35.5654 2.49733 35.6186 2.54997C35.7137 2.64507 35.8093 2.74583 35.9016 2.84659C35.9939 2.94735 36.0811 3.05269 36.1711 3.15855C36.2611 3.2644 36.346 3.3702 36.4252 3.48171C36.5045 3.59322 36.5894 3.70813 36.6686 3.82587L36.8594 4.1089L36.9228 4.20457C37.7293 5.55525 38.1555 7.09884 38.1562 8.67192C38.159 10.3951 37.6425 12.079 36.6743 13.5044L29.6715 23.8888L29.4966 24.1429L29.2481 24.5137L24.9925 30.8281L24.8391 30.2882L18.7466 9.11741L22.2454 3.9306C22.2612 3.90909 22.272 3.89323 22.2827 3.87739C22.2919 3.85786 22.3043 3.84002 22.3195 3.8248V3.81908C22.4254 3.66568 22.5363 3.51737 22.6479 3.37472C22.6605 3.34834 22.6784 3.32485 22.7005 3.30566C22.7747 3.2049 22.8596 3.10477 22.944 3.00967C23.0764 2.85061 23.2196 2.69715 23.3673 2.54884L23.3781 2.53809C23.4913 2.42487 23.6006 2.32128 23.7178 2.21543C23.7653 2.17807 23.8128 2.13618 23.8604 2.09373C23.9453 2.01448 24.0353 1.94542 24.1253 1.87636C24.149 1.85207 24.1757 1.83079 24.2045 1.81296C24.2892 1.74311 24.3774 1.67773 24.4689 1.6171C24.5254 1.57012 24.5856 1.52772 24.6489 1.4903C24.6489 1.48521 24.6545 1.48521 24.6545 1.48521C24.9429 1.29258 25.2414 1.11568 25.5489 0.955433C25.6865 0.886938 25.8292 0.817825 25.9673 0.754427C25.9724 0.754427 25.9723 0.749331 25.9774 0.749331C26.1365 0.680271 26.2899 0.616873 26.4484 0.558569C26.6069 0.500265 26.7767 0.442015 26.946 0.388805C27.1152 0.335596 27.2794 0.293653 27.4435 0.251198C27.6077 0.208744 27.7668 0.177097 27.9252 0.145399C27.9445 0.144436 27.9636 0.140816 27.9819 0.134588C28.146 0.107985 28.3045 0.0819435 28.4687 0.0660934C28.6328 0.0502453 28.8129 0.0287914 28.9878 0.0180359C29.1531 0.00558281 29.3166 -0.000133514 29.4864 -0.000133514Z" fill="black"/>
</g>
<path d="M29.4871 -6.86646e-05H29.508C29.6721 -6.86646e-05 29.8414 0.00559235 30.0056 0.0157814C30.1805 0.0265388 30.3548 0.0423851 30.524 0.0638962C30.6933 0.0854073 30.8683 0.111443 31.0375 0.13805C31.0475 0.142124 31.0583 0.143879 31.0692 0.143147C31.2282 0.174843 31.3873 0.211636 31.5458 0.248997C32.0522 0.371887 32.5465 0.540123 33.0226 0.751659C33.1811 0.820717 33.3351 0.899971 33.4885 0.974125L33.4937 0.979218C33.6471 1.05846 33.8005 1.14903 33.9465 1.23847C34.079 1.31829 34.2114 1.39753 34.3382 1.48244C34.648 1.69562 34.945 1.92703 35.2275 2.1753C35.365 2.297 35.4924 2.41928 35.6192 2.54608C36.0078 2.93751 36.3585 3.36471 36.667 3.82198L36.8578 4.10501L36.9212 4.20067L38.8322 7.02701L38.8373 7.03211C38.8373 7.03777 38.8423 7.03777 38.8423 7.04287C38.8423 7.04796 38.848 7.04796 38.848 7.05362H38.8531C38.861 7.06364 38.8682 7.07423 38.8746 7.08532L45.5542 16.9886L46.3426 18.158L57.5161 34.7091C58.4891 36.1496 59.0055 37.8497 58.998 39.588C58.9904 41.3263 58.4592 43.0219 57.4737 44.4538C57.4369 44.5065 57.4052 44.5489 57.3786 44.5806C56.6131 45.6605 55.6088 46.5491 54.4438 47.1775C53.2788 47.8058 51.9845 48.1569 50.6617 48.2034H49.8307C48.5012 48.1228 47.2081 47.7371 46.0517 47.0762C44.8952 46.4154 43.9064 45.4972 43.1619 44.3927L36.6302 34.7063L36.3867 34.3463L33.0414 29.3921L32.5228 28.6194C32.5176 28.6076 32.5104 28.5969 32.5013 28.5877L29.4949 24.1362L29.469 24.0994L22.3179 13.5028C21.3635 12.086 20.8489 10.4188 20.8388 8.71054C20.8287 7.00228 21.3236 5.32911 22.2612 3.90123C22.2827 3.86953 22.3037 3.83783 22.3179 3.81122C22.4238 3.65782 22.5346 3.50951 22.6462 3.36686C22.7413 3.2395 22.8364 3.1178 22.9422 3.00175C23.0747 2.84269 23.2179 2.68929 23.3656 2.54098L23.3764 2.53023C23.5298 2.37682 23.6888 2.22852 23.8581 2.08587C23.943 2.00662 24.033 1.93756 24.123 1.8685C24.1467 1.84416 24.1734 1.82287 24.2023 1.8051C24.2869 1.73519 24.3751 1.66986 24.4666 1.60924C24.5262 1.56209 24.5881 1.51805 24.6523 1.47735C25.0719 1.19551 25.5145 0.949329 25.9752 0.74147C26.1343 0.672413 26.2877 0.609013 26.4462 0.550709C26.6046 0.492405 26.7745 0.434101 26.9438 0.38089C27.113 0.327679 27.2771 0.285793 27.4413 0.24334C27.6054 0.200886 27.7645 0.169182 27.923 0.137482C27.9423 0.13652 27.9613 0.1329 27.9796 0.126728C28.1437 0.100124 28.3023 0.0740852 28.4665 0.0582352C28.6306 0.0423851 28.8106 0.020874 28.9855 0.0101204C29.1537 0.00559235 29.3173 -6.86646e-05 29.4871 -6.86646e-05Z" fill="url(#paint1_linear_119_3076)"/>
<g style="mix-blend-mode:multiply" opacity="0.1">
<path d="M45.5561 16.9908L46.3446 18.1603L57.5181 34.7113C58.4911 36.1518 59.0075 37.852 58.9999 39.5903C58.9923 41.3285 58.4612 43.0242 57.4756 44.4561C57.4388 44.5087 57.4071 44.5512 57.3805 44.5829C56.615 45.6627 55.6107 46.5514 54.4457 47.1797C53.2807 47.8081 51.9864 48.1592 50.6636 48.2057H49.8327C48.5032 48.125 47.2101 47.7393 46.0536 47.0785C44.8972 46.4177 43.9084 45.4994 43.1639 44.395L36.6321 34.7085L36.3887 34.3485L33.0433 29.3943L45.2912 17.2568L45.5561 16.9908Z" fill="black"/>
</g>
<path d="M46.3446 18.1625L57.5181 34.7136C58.4911 36.154 59.0075 37.8543 58.9999 39.5925C58.9923 41.3308 58.4612 43.0265 57.4756 44.4584C57.4388 44.511 57.4071 44.5535 57.3805 44.5852C56.615 45.665 55.6107 46.5536 54.4457 47.182C53.2807 47.8103 51.9864 48.1614 50.6636 48.2079L27.8723 48.2079L36.3887 34.3519L44.3334 21.4321C44.3385 21.4264 44.3384 21.4214 44.3441 21.4163L46.1222 18.5259L46.3446 18.1625Z" fill="#6282C3"/>
<g style="mix-blend-mode:screen" opacity="0.6">
<path d="M23.379 2.53534L22.9663 3.08046C22.8251 3.25418 22.6942 3.43623 22.5746 3.62557L22.2305 4.20296C22.1171 4.39468 22.018 4.59444 21.9338 4.80071C21.8341 5.00053 21.7493 5.20754 21.6802 5.41999L21.4787 6.05001C21.4153 6.26172 21.3836 6.47852 21.3304 6.69589C21.2832 6.90856 21.2513 7.12446 21.2353 7.34177C21.2067 7.55931 21.1908 7.77837 21.1878 7.99783C21.1878 8.22029 21.1719 8.4371 21.1878 8.65446L21.2353 9.31053L21.3361 9.9564C21.4177 10.3855 21.5237 10.8096 21.6536 11.2266C21.7221 11.4333 21.7912 11.6393 21.8761 11.8408C21.9497 12.031 22.0397 12.2269 22.1246 12.3961C23.0303 13.7145 23.936 15.043 24.8185 16.3716C25.7078 17.7103 26.5971 19.0496 27.4654 20.4048C28.3337 21.7599 29.2015 23.1145 30.0432 24.4804C30.4717 25.1631 30.8844 25.8565 31.2976 26.5448C31.7052 27.2241 32.1128 27.9034 32.5039 28.5928L22.3205 13.5079C21.1974 11.8398 20.6889 9.83334 20.882 7.83175C21.0751 5.83016 21.9578 3.95791 23.379 2.53534Z" fill="white"/>
</g>
<g style="mix-blend-mode:screen" opacity="0.6">
<path d="M15.0107 14.6563C14.4758 15.5773 13.9148 16.4774 13.3646 17.3825C12.8144 18.2877 12.2478 19.203 11.6812 20.103C10.5434 21.9076 9.39241 23.7037 8.22819 25.4913C7.074 27.2857 5.883 29.0536 4.70842 30.8316C3.5197 32.5864 2.33714 34.3513 1.13539 36.0959L0.928781 36.7418C0.860288 36.9801 0.770284 37.2128 0.717073 37.4511L0.563669 38.1762C0.505364 38.4142 0.46744 38.6568 0.450459 38.9013L0.38706 39.6372C0.376305 39.8806 0.397248 40.124 0.402909 40.3731L0.408001 40.7438L0.461212 41.1039C0.488382 41.3493 0.528575 41.5931 0.582917 41.8341L0.773113 42.549L1.04539 43.2391C1.13539 43.4723 1.26219 43.6891 1.36804 43.9115C1.48352 44.1315 1.61088 44.3452 1.749 44.5518C1.88146 44.7686 2.04562 44.9593 2.18827 45.1603C2.34733 45.3561 2.51154 45.5469 2.68589 45.732C3.03056 46.1009 3.40965 46.436 3.81801 46.7328C1.91486 45.4479 0.599897 43.4597 0.162332 41.2056C-0.275234 38.9513 0.200257 36.6156 1.48408 34.7119L15.0107 14.6563Z" fill="white"/>
</g>
<g style="mix-blend-mode:screen" opacity="0.6">
<path d="M44.333 21.4315C43.7137 22.5801 43.0628 23.7128 42.422 24.8506C42.0942 25.4166 41.7818 25.994 41.4433 26.555L40.4532 28.2532L38.4686 31.6456L36.4467 35.0227L34.4032 38.3783L32.3445 41.7237L30.259 45.0584C29.6607 46.006 29.0732 46.9479 28.4647 47.8887L33.318 47.9945C35.0966 48.0687 36.8752 48.1111 38.6588 48.2062H27.872L36.3883 34.3519L44.333 21.4315Z" fill="white"/>
</g>
<g style="mix-blend-mode:multiply" opacity="0.3">
<path d="M38.8443 7.04516C38.85 7.04516 38.85 7.0502 38.8551 7.05585C38.863 7.06588 38.8702 7.07646 38.8766 7.08755L45.5561 16.9908L46.3446 18.1603L57.5181 34.7114C58.4911 36.1518 59.0075 37.852 58.9999 39.5903C58.9923 41.3285 58.4612 43.0242 57.4756 44.4561C57.4388 44.5088 57.4071 44.5512 57.3805 44.5829C57.3539 44.6146 57.333 44.6361 57.3171 44.652C57.6667 44.1446 57.9546 43.5973 58.1747 43.0217C58.4353 42.3566 58.6112 41.6613 58.6983 40.9522C58.8116 40.0429 58.7687 39.1209 58.5715 38.226C58.3521 37.1684 57.9586 36.1546 57.4071 35.2259C57.3437 35.1127 57.2639 34.9564 57.2062 34.8659L56.9464 34.4957C56.772 34.2466 56.5971 33.9981 56.4171 33.7439C56.0627 33.2345 55.7027 32.712 55.332 32.1827C53.8602 30.0708 52.3154 27.7946 50.7695 25.5185C50.0019 24.3756 49.2412 23.2322 48.4883 22.1103C47.7422 20.9781 47.0064 19.8709 46.2971 18.7914C46.2405 18.7014 46.1805 18.6114 46.1222 18.5265C45.842 18.098 45.5612 17.6775 45.2912 17.2563C44.2593 15.6793 43.3066 14.1996 42.4648 12.8739C41.3537 11.1378 40.4587 9.66597 39.8185 8.64989C39.2734 7.74419 38.9292 7.18384 38.85 7.05704C38.85 7.05019 38.8443 7.05025 38.8443 7.04516Z" fill="black"/>
</g>
<g style="mix-blend-mode:multiply" opacity="0.3">
<path d="M29.4619 24.1203C29.441 24.1627 29.3668 24.3004 29.2502 24.5121L24.9946 30.8265L16.2557 43.7785C16.3355 43.6302 17.0181 42.36 18.0976 40.5763C18.6693 39.618 19.3521 38.5169 20.0987 37.3423C20.4797 36.7599 20.8555 36.1537 21.2631 35.5423C21.6706 34.931 22.0782 34.3196 22.4857 33.7004C23.2782 32.5309 24.0736 31.3715 24.8412 30.2864C24.8779 30.2298 24.9204 30.1732 24.9578 30.1166C25.7621 28.9789 26.524 27.9304 27.1914 27.0361C28.4339 25.3639 29.3487 24.2527 29.4619 24.1203Z" fill="black"/>
</g>
<defs>
<linearGradient id="paint0_linear_119_3076" x1="510.855" y1="177.831" x2="469.714" y2="156.726" gradientUnits="userSpaceOnUse">
<stop stop-color="#EB643F"/>
<stop offset="1" stop-color="#964C9A"/>
</linearGradient>
<linearGradient id="paint1_linear_119_3076" x1="472.837" y1="158.879" x2="494.212" y2="142.656" gradientUnits="userSpaceOnUse">
<stop stop-color="#FCC400"/>
<stop offset="0.162" stop-color="#FBC000"/>
<stop offset="0.307" stop-color="#FBB500"/>
<stop offset="0.446" stop-color="#FBA300"/>
<stop offset="0.581" stop-color="#FA8900"/>
<stop offset="0.712" stop-color="#FA6800"/>
<stop offset="0.842" stop-color="#F93F00"/>
<stop offset="0.967" stop-color="#F81000"/>
<stop offset="1" stop-color="#F80300"/>
</linearGradient>
</defs>
</svg>
