<svg width="27" height="26" viewBox="0 0 27 26" fill="none" xmlns="http://www.w3.org/2000/svg">
<path fill-rule="evenodd" clip-rule="evenodd" d="M6.5726 3.96386V6.03469L4.10218 6.23594C3.25347 6.30425 2.45218 6.65515 1.82641 7.23254C1.20064 7.80993 0.786533 8.58046 0.650305 9.42094C0.590513 9.79719 0.533638 10.1734 0.484055 10.5512C0.472251 10.6425 0.489759 10.7352 0.534055 10.8159C0.578351 10.8966 0.647144 10.9612 0.730513 11.0003L0.842805 11.0528C8.7601 14.8007 18.2407 14.8007 26.1566 11.0528L26.2688 11.0003C26.3519 10.961 26.4204 10.8963 26.4645 10.8156C26.5085 10.7349 26.5258 10.6423 26.5138 10.5512C26.4644 10.1736 26.4095 9.79685 26.3491 9.42094C26.2128 8.58046 25.7987 7.80993 25.173 7.23254C24.5472 6.65515 23.7459 6.30425 22.8972 6.23594L20.4268 6.03615V3.96532C20.4269 3.35406 20.2077 2.76305 19.8089 2.29978C19.4101 1.83651 18.8583 1.53176 18.2538 1.44094L16.4747 1.17407C14.5024 0.878175 12.497 0.878175 10.5247 1.17407L8.74551 1.44094C8.14129 1.53172 7.58968 1.83626 7.19094 2.29923C6.7922 2.76219 6.5728 3.35285 6.5726 3.96386ZM16.1495 3.33678C14.3928 3.0733 12.6066 3.0733 10.8499 3.33678L9.07072 3.60365C8.9844 3.61657 8.90558 3.66003 8.84858 3.72612C8.79158 3.79222 8.76018 3.87658 8.7601 3.96386V5.88157C11.9172 5.70071 15.0821 5.70071 18.2393 5.88157V3.96386C18.2392 3.87658 18.2078 3.79222 18.1508 3.72612C18.0938 3.66003 18.015 3.61657 17.9286 3.60365L16.1495 3.33678Z" fill="#4B0082"/>
<path d="M26.7964 13.6019C26.7935 13.5548 26.7792 13.509 26.7547 13.4686C26.7302 13.4282 26.6963 13.3944 26.6558 13.37C26.6154 13.3456 26.5696 13.3314 26.5225 13.3286C26.4753 13.3258 26.4282 13.3346 26.3851 13.354C18.2608 16.9517 8.73784 16.9517 0.613467 13.354C0.570422 13.3346 0.523296 13.3258 0.47614 13.3286C0.428984 13.3314 0.38321 13.3456 0.342755 13.37C0.302299 13.3944 0.268373 13.4282 0.243892 13.4686C0.219412 13.509 0.20511 13.5548 0.202217 13.6019C0.0531783 16.3939 0.203268 19.1938 0.649925 21.9538C0.786154 22.7943 1.20026 23.5648 1.82603 24.1422C2.4518 24.7196 3.25309 25.0705 4.1018 25.1388L6.8318 25.3605C11.2695 25.7178 15.7276 25.7178 20.1668 25.3605L22.8968 25.1403C23.7457 25.0719 24.5472 24.7208 25.173 24.1431C25.7988 23.5654 26.2127 22.7946 26.3487 21.9538C26.7949 19.1903 26.9466 16.3903 26.7964 13.6034V13.6019Z" fill="#4B0082"/>
</svg>
