<svg width="30" height="30" viewBox="0 0 30 30" fill="none" xmlns="http://www.w3.org/2000/svg">
<g clip-path="url(#clip0_119_3100)">
<path d="M7.8407 2.0454H13.9769C14.1644 2.0454 14.3178 2.19881 14.3178 2.3863V4.0908H7.4998V2.3863C7.4998 2.19881 7.65321 2.0454 7.8407 2.0454ZM5.4544 2.3863V4.0908H2.7272C1.22298 4.0908 0 5.31378 0 6.818V10.9088H8.18161H13.636H21.8176V6.818C21.8176 5.31378 20.5946 4.0908 19.0904 4.0908H16.3632V2.3863C16.3632 1.06957 15.2936 0 13.9769 0H7.8407C6.52398 0 5.4544 1.06957 5.4544 2.3863ZM21.8176 12.2724H13.636V13.636C13.636 14.3903 13.0266 14.9996 12.2724 14.9996H9.54521C8.79096 14.9996 8.18161 14.3903 8.18161 13.636V12.2724H0V17.7268C0 19.231 1.22298 20.454 2.7272 20.454H19.0904C20.5946 20.454 21.8176 19.231 21.8176 17.7268V12.2724Z" fill="#003D62"/>
</g>
<circle cx="20.0007" cy="19.9991" r="9.99974" fill="white"/>
<path d="M20.0008 29.09C22.4118 29.09 24.7241 28.1323 26.4289 26.4274C28.1337 24.7226 29.0915 22.4104 29.0915 19.9994C29.0915 17.5884 28.1337 15.2761 26.4289 13.5713C24.7241 11.8665 22.4118 10.9087 20.0008 10.9087C17.5898 10.9087 15.2776 11.8665 13.5728 13.5713C11.8679 15.2761 10.9102 17.5884 10.9102 19.9994C10.9102 22.4104 11.8679 24.7226 13.5728 26.4274C15.2776 28.1323 17.5898 29.09 20.0008 29.09ZM19.1486 23.1243V20.8516H16.8759C16.4036 20.8516 16.0237 20.4717 16.0237 19.9994C16.0237 19.5271 16.4036 19.1471 16.8759 19.1471H19.1486V16.8744C19.1486 16.4022 19.5285 16.0222 20.0008 16.0222C20.4731 16.0222 20.8531 16.4022 20.8531 16.8744V19.1471H23.1257C23.598 19.1471 23.978 19.5271 23.978 19.9994C23.978 20.4717 23.598 20.8516 23.1257 20.8516H20.8531V23.1243C20.8531 23.5966 20.4731 23.9765 20.0008 23.9765C19.5285 23.9765 19.1486 23.5966 19.1486 23.1243Z" fill="#003D62"/>
<defs>
<clipPath id="clip0_119_3100">
<rect width="21.8176" height="21.8176" fill="white"/>
</clipPath>
</defs>
</svg>
