<svg width="30" height="29" viewBox="0 0 30 29" fill="none" xmlns="http://www.w3.org/2000/svg">
<path d="M0 23.4375C0 24.4746 0.837891 25.3125 1.875 25.3125H5.08008C5.80078 26.9707 7.45312 28.125 9.375 28.125C11.2969 28.125 12.9492 26.9707 13.6699 25.3125H28.125C29.1621 25.3125 30 24.4746 30 23.4375C30 22.4004 29.1621 21.5625 28.125 21.5625H13.6699C12.9492 19.9043 11.2969 18.75 9.375 18.75C7.45312 18.75 5.80078 19.9043 5.08008 21.5625H1.875C0.837891 21.5625 0 22.4004 0 23.4375ZM7.5 23.4375C7.5 22.9402 7.69754 22.4633 8.04918 22.1117C8.40081 21.76 8.87772 21.5625 9.375 21.5625C9.87228 21.5625 10.3492 21.76 10.7008 22.1117C11.0525 22.4633 11.25 22.9402 11.25 23.4375C11.25 23.9348 11.0525 24.4117 10.7008 24.7633C10.3492 25.115 9.87228 25.3125 9.375 25.3125C8.87772 25.3125 8.40081 25.115 8.04918 24.7633C7.69754 24.4117 7.5 23.9348 7.5 23.4375ZM18.75 14.0625C18.75 13.5652 18.9475 13.0883 19.2992 12.7367C19.6508 12.385 20.1277 12.1875 20.625 12.1875C21.1223 12.1875 21.5992 12.385 21.9508 12.7367C22.3025 13.0883 22.5 13.5652 22.5 14.0625C22.5 14.5598 22.3025 15.0367 21.9508 15.3883C21.5992 15.74 21.1223 15.9375 20.625 15.9375C20.1277 15.9375 19.6508 15.74 19.2992 15.3883C18.9475 15.0367 18.75 14.5598 18.75 14.0625ZM20.625 9.375C18.7031 9.375 17.0508 10.5293 16.3301 12.1875H1.875C0.837891 12.1875 0 13.0254 0 14.0625C0 15.0996 0.837891 15.9375 1.875 15.9375H16.3301C17.0508 17.5957 18.7031 18.75 20.625 18.75C22.5469 18.75 24.1992 17.5957 24.9199 15.9375H28.125C29.1621 15.9375 30 15.0996 30 14.0625C30 13.0254 29.1621 12.1875 28.125 12.1875H24.9199C24.1992 10.5293 22.5469 9.375 20.625 9.375ZM11.25 6.5625C10.7527 6.5625 10.2758 6.36496 9.92418 6.01333C9.57254 5.66169 9.375 5.18478 9.375 4.6875C9.375 4.19022 9.57254 3.71331 9.92418 3.36167C10.2758 3.01004 10.7527 2.8125 11.25 2.8125C11.7473 2.8125 12.2242 3.01004 12.5758 3.36167C12.9275 3.71331 13.125 4.19022 13.125 4.6875C13.125 5.18478 12.9275 5.66169 12.5758 6.01333C12.2242 6.36496 11.7473 6.5625 11.25 6.5625ZM15.5449 2.8125C14.8242 1.1543 13.1719 0 11.25 0C9.32812 0 7.67578 1.1543 6.95508 2.8125H1.875C0.837891 2.8125 0 3.65039 0 4.6875C0 5.72461 0.837891 6.5625 1.875 6.5625H6.95508C7.67578 8.2207 9.32812 9.375 11.25 9.375C13.1719 9.375 14.8242 8.2207 15.5449 6.5625H28.125C29.1621 6.5625 30 5.72461 30 4.6875C30 3.65039 29.1621 2.8125 28.125 2.8125H15.5449Z" fill="#003D62"/>
</svg>
